<svg xmlns="http://www.w3.org/2000/svg" viewBox="0 0 140 140"><defs><style>.cls-1{fill:#007aff;}.cls-2{fill:none;}</style></defs><title>Вызов скорой медицинской помощи</title><g id="Слой_2" data-name="Слой 2"><g id="Слой_1-2" data-name="Слой 1"><path class="cls-1" d="M108.33,96A11.67,11.67,0,1,0,120,107.69,11.67,11.67,0,0,0,108.33,96Zm0,16.66a5,5,0,1,1,5-5A5,5,0,0,1,108.33,112.69Z"/><path class="cls-1" d="M31.68,96a11.67,11.67,0,1,0,11.67,11.67A11.67,11.67,0,0,0,31.68,96Zm0,16.66a5,5,0,1,1,5-5A5,5,0,0,1,31.68,112.69Z"/><path class="cls-1" d="M101.66,37.71h0a5,5,0,0,1,5,5v1.67a0,0,0,0,1,0,0h-10a0,0,0,0,1,0,0V42.7a5,5,0,0,1,5-5Z"/><path class="cls-1" d="M137.43,89.36a6.63,6.63,0,0,1-5.93-3.67l-1.5-3h9.5a14.08,14.08,0,0,0-7.29-8.89,14.05,14.05,0,0,1-1.81-1.11h-5a3,3,0,0,1-2.79-1.89l-4.27-10.66A3,3,0,0,1,121.09,56h1.13a14.08,14.08,0,0,0-12.85-8.33h-26l-9.12-9.12a3,3,0,0,0-2.12-.88H3a3,3,0,0,0-3,3v64a3,3,0,0,0,3,3H13.35a18.32,18.32,0,0,1,36.65,0H90a18.33,18.33,0,0,1,36.66,0H134a6,6,0,0,0,6-6V89.36ZM46.67,67.71h-10v10h-10v-10h-10v-10h10v-10h10v10h10Zm68.89,5H92.46a3,3,0,0,1-3-3V59a3,3,0,0,1,3-3H111.3a3,3,0,0,1,2.79,1.89l4.27,10.66A3,3,0,0,1,115.56,72.7Z"/><rect class="cls-2" width="140" height="140"/></g></g></svg>