<svg xmlns="http://www.w3.org/2000/svg" viewBox="0 0 140 140"><defs><style>.cls-1{fill:#007aff;}.cls-2{fill:none;}</style></defs><title>Видеонаблюдение снаружи здания</title><g id="Слой_2" data-name="Слой 2"><g id="Слой_1-2" data-name="Слой 1"><rect class="cls-1" x="124.96" y="55.77" width="13.39" height="73.46"/><path class="cls-1" d="M111.06,89.13A10,10,0,0,0,97.39,83.4L84.7,70.71l-4.77,4.77L92.61,88.17A10,10,0,1,0,111,95.88H135V89.13Zm-9.42,6.64A3.33,3.33,0,1,1,105,92.44,3.34,3.34,0,0,1,101.64,95.77Z"/><path class="cls-1" d="M74.63,32.48,62.86,20.71a3.27,3.27,0,0,0-4.63,0L1.66,77.29,6.36,82,41,70.47a3.28,3.28,0,0,0,1.32-.81L74.63,37.29A3.4,3.4,0,0,0,74.63,32.48Z"/><path class="cls-1" d="M70,18.39l9.48,9.48a10,10,0,0,1,0,14.18L48.13,73.36a9.82,9.82,0,0,1-3.85,2.38l-19,6.31L37,93.82a9.93,9.93,0,0,0,14.05,0L103,41.91a9.92,9.92,0,0,0,0-14L88.84,13.71a10,10,0,0,0-14.19,0Z"/><rect class="cls-1" x="15.5" y="88.78" width="10" height="10" transform="translate(-60.31 41.97) rotate(-45)"/><rect class="cls-2" width="140" height="140"/></g></g></svg>