<?xml version="1.0" encoding="UTF-8"?>
<svg width="44px" height="33px" viewBox="0 0 44 33" version="1.1" xmlns="http://www.w3.org/2000/svg" xmlns:xlink="http://www.w3.org/1999/xlink">
    <!-- Generator: Sketch 52.3 (67297) - http://www.bohemiancoding.com/sketch -->
    <title>icons8-insert-card</title>
    <desc>Created with Sketch.</desc>
    <g id="Page-1" stroke="none" stroke-width="1" fill="none" fill-rule="evenodd">
        <g id="hote_page-copy-5" transform="translate(-195.000000, -1639.000000)">
            <g id="icons8-insert-card" transform="translate(195.000000, 1639.000000)">
                <path d="M23,30.8 L31,30.8 L32.6425,30.8 C34.54,30.8 35.9975,29.26 35.9975,27.445 L35.9975,2.64 L31.1,2.64 L23.1,2.64 L7.92,2.64 L7.92,27.6375 C7.92,29.3459373 9.37406272,30.8 11.0825,30.8 L23,30.8 Z M23.76,28.8 L23.76,4.64 L30.8,4.64 L30.8,28.8 L23.76,28.8 Z M6.9575,0.8525 C7.04,0.84906272 7.12593728,0.85937544 7.205,0.88 L40.04,0.88 C42.2056254,0.88 44,2.67437544 44,4.84 C44,7.00562544 42.2056254,8.8 40.04,8.8 L37.7575,8.8 L37.7575,27.445 C37.7575,30.2053127 35.4956254,32.56 32.6425,32.56 L11.0825,32.56 C8.39093728,32.56 6.16,30.3290627 6.16,27.6375 L6.16,8.8 L3.96,8.8 C1.79437544,8.8 0,7.00562544 0,4.84 C0,2.67437544 1.79437544,0.88 3.96,0.88 L6.8475,0.88 C6.88187544,0.86968728 6.91968728,0.85937544 6.9575,0.8525 Z M3.96,2.64 C2.78093728,2.64 1.76,3.66093728 1.76,4.84 C1.76,6.01906272 2.78093728,7.04 3.96,7.04 L6.16,7.04 L6.16,2.64 L3.96,2.64 Z M37.7575,2.64 L37.7575,3.52 L37.84,3.52 L37.84,7.04 L40.04,7.04 C41.2190627,7.04 42.24,6.01906272 42.24,4.84 C42.24,3.66093728 41.2190627,2.64 40.04,2.64 L37.7575,2.64 Z" id="Combined-Shape" fill="#333333" fill-rule="nonzero"></path>
                <rect id="Rectangle" fill="#3395FF" x="23.7" y="4.6" width="7.1" height="24.2"></rect>
            </g>
        </g>
    </g>
</svg>