<svg xmlns="http://www.w3.org/2000/svg" viewBox="0 0 140 140"><defs><style>.cls-1{fill:#007aff;}.cls-2{fill:none;}</style></defs><title>Места для курения</title><g id="Слой_2" data-name="Слой 2"><g id="Слой_1-2" data-name="Слой 1"><path class="cls-1" d="M131.66,41.67a9,9,0,0,0,0,10l2.51,3.76a2.77,2.77,0,0,0,2.31,1.23h0a2.77,2.77,0,0,0,2.31-4.31L137,49.75a5.54,5.54,0,0,1,0-6.15l1.28-1.92a9,9,0,0,0,0-10l-2.51-3.76A2.77,2.77,0,0,0,131.2,31l1.74,2.61a5.54,5.54,0,0,1,0,6.15Z"/><path class="cls-1" d="M118.18,41.67a9,9,0,0,0,0,10l2.51,3.76A2.77,2.77,0,0,0,123,56.67h0a2.77,2.77,0,0,0,2.31-4.31l-1.74-2.61a5.54,5.54,0,0,1,0-6.15l1.28-1.92a9,9,0,0,0,0-10l-2.51-3.76A2.77,2.77,0,0,0,117.72,31l1.74,2.61a5.54,5.54,0,0,1,0,6.15Z"/><rect class="cls-1" x="0.01" y="70" width="36.67" height="16.66"/><rect class="cls-1" x="43.35" y="70" width="79.98" height="16.66"/><rect class="cls-1" x="130" y="70" width="10" height="16.66"/><rect class="cls-2" width="140" height="140"/></g></g></svg>