<svg xmlns="http://www.w3.org/2000/svg" viewBox="0 0 140 140"><defs><style>.cls-1{fill:#007aff;}.cls-2{fill:none;}</style></defs><title>Сувенирный магазин</title><g id="Слой_2" data-name="Слой 2"><g id="Слой_1-2" data-name="Слой 1"><path class="cls-1" d="M121.11,35.63H101q-.27-4.93-.82-9.86h0a4,4,0,0,0-4-3.57l-91.11,0a4,4,0,0,0-4,3.58l0,.31a169.29,169.29,0,0,0,7.3,71.21l10.4,31.91a8,8,0,0,0,7.31,4.68H75.2a8,8,0,0,0,7.31-4.69L92.68,98.19h20.26a17.9,17.9,0,0,0,16.85-11.88l9.09-25.46A18.87,18.87,0,0,0,121.11,35.63ZM33.17,89.73a3.68,3.68,0,1,1,0,7.37H18.43a3.68,3.68,0,1,1,0-7.37h3.68V56.57H18.43a3.68,3.68,0,1,1,0-7.37H33.17a3.68,3.68,0,1,1,0,7.37H29.48V89.73ZM85,74.75,67.33,92.47a4.39,4.39,0,0,1-6.21,0L43.41,74.75a9.81,9.81,0,0,1,0-13.88h0a9.81,9.81,0,0,1,13.88,0L61.46,65A3.91,3.91,0,0,0,67,65l4.17-4.17a9.81,9.81,0,0,1,13.88,0h0A9.81,9.81,0,0,1,85,74.75Zm42.22-17.58-7.9,26.33a8.07,8.07,0,0,1-7.73,5.75H95.36a169.29,169.29,0,0,0,5.91-44.68h16.62A9.79,9.79,0,0,1,127.27,57.17Z"/><rect class="cls-2" width="140" height="140"/></g></g></svg>