<svg xmlns="http://www.w3.org/2000/svg" width="16" height="17" viewBox="0 0 16 17">
    <g fill="#4CD964" fill-rule="evenodd">
        <path d="M2.004 16.495H4.15c.03.283.185.505.38.505h4.878c.196 0 .35-.22.38-.505h2.146c.363 0 .657-.445.657-.995H1.348c0 .55.294.995.656.995z"/>
        <path fill-rule="nonzero" d="M15.175 8.761c-.547-.466-1.318-.474-1.824-.415.014-.372.022-.753.022-1.148H0c0 3.804.547 6.55 4.008 7.574h5.357c1.371-.405 2.28-1.085 2.883-1.99 1.313-.027 3.426-.571 3.505-2.48.035-.837-.296-1.3-.578-1.541zm-2.376 2.929c.251-.68.4-1.446.482-2.288.355-.06.967-.1 1.276.165.057.05.234.2.213.69-.041.989-1.208 1.321-1.971 1.433z"/>
        <path d="M5.448 6.663s2.545-.196 1.379-2.456C5.89 2.394 6.104 1.33 7.303.368c0 0-3.926 1.053-1.637 4.31.84 1.42-.218 1.985-.218 1.985z"/>
        <path d="M7.164 6.483s2.039-.453.93-2.18c-.404-.748.152-1.015.152-1.015s-1.313.044-.759 1.231c.444.955.312 1.497-.323 1.964z"/>
    </g>
</svg>
