<svg xmlns="http://www.w3.org/2000/svg" viewBox="0 0 140 140"><defs><style>.cls-1{fill:#007aff;}.cls-2{fill:none;}</style></defs><title>Круглосуточная охрана</title><g id="Слой_2" data-name="Слой 2"><g id="Слой_1-2" data-name="Слой 1"><polygon class="cls-1" points="85.13 65.8 85.13 56.9 77.73 65.8 85.13 65.8"/><path class="cls-1" d="M127.94,19.55,71,.55a2.94,2.94,0,0,0-1.9,0l-57,19A3,3,0,0,0,10,22.39V45.13a102.93,102.93,0,0,0,45.83,85.64l12.5,8.33a3,3,0,0,0,3.32,0l12.5-8.33A102.93,102.93,0,0,0,130,45.13V22.39A3,3,0,0,0,127.94,19.55ZM67.14,78.21H42.6V71.74l11.61-8.86c2.92-2.22,4-3.72,4-5.58s-1.38-3.15-3.46-3.15-3.72,1.2-6.16,4l-5.8-4.83c3.32-4.3,6.6-6.64,12.63-6.64,6.77,0,11.42,4,11.42,10,0,5-2.52,7.58-7.17,10.86l-5.32,3.72h12.8Zm30.26-6h-4v6H85.12v-6h-15l-1.42-6.07L84.77,47h8.68V65.76h4Z"/><rect class="cls-2" width="140" height="140"/></g></g></svg>