<svg xmlns="http://www.w3.org/2000/svg" viewBox="0 0 140 140"><defs><style>.cls-1{fill:#007aff;}.cls-2{fill:none;}</style></defs><title>Обмен валюты</title><g id="Слой_2" data-name="Слой 2"><g id="Слой_1-2" data-name="Слой 1"><path class="cls-1" d="M63.33,85.88v43.33H140V85.88ZM80,102.54H70v-10H80Zm21.66,16.66a11.66,11.66,0,1,1,11.66-11.66A11.66,11.66,0,0,1,101.66,119.21Zm31.66,3.33h-10v-10h10Z"/><path class="cls-1" d="M0,22.56V65.88H76.67V22.56ZM16.67,39.22h-10v-10h10ZM38.34,55.89A11.66,11.66,0,1,1,50,44.22,11.66,11.66,0,0,1,38.34,55.89ZM70,59.22H60v-10H70Z"/><path class="cls-1" d="M105.28,62.61A36.69,36.69,0,0,0,91.92,43.17a3.34,3.34,0,0,0-4.87,1h0a3.32,3.32,0,0,0,.85,4.36A30.08,30.08,0,0,1,98.28,62.55H90.91a1,1,0,0,0-.66,1.75l11.91,10.55a1,1,0,0,0,1.41-.09l9.33-10.53a1,1,0,0,0-.76-1.66Z"/><path class="cls-1" d="M34.72,82.49a36.69,36.69,0,0,0,13.35,19.44,3.34,3.34,0,0,0,4.87-1h0a3.32,3.32,0,0,0-.85-4.36A30.08,30.08,0,0,1,41.72,82.55h7.37a1,1,0,0,0,.66-1.75L37.84,70.25a1,1,0,0,0-1.41.09L27.1,80.87a1,1,0,0,0,.76,1.66Z"/><rect class="cls-2" width="140" height="140"/></g></g></svg>