<svg xmlns="http://www.w3.org/2000/svg" viewBox="0 0 140 140"><defs><style>.cls-1{fill:#007aff;}.cls-2{fill:none;}</style></defs><title>Семейные номера</title><g id="Слой_2" data-name="Слой 2"><g id="Слой_1-2" data-name="Слой 1"><circle class="cls-1" cx="25.79" cy="12.89" r="12.89"/><circle class="cls-1" cx="64.47" cy="49.74" r="9.21"/><circle class="cls-1" cx="103.16" cy="12.89" r="12.89"/><path class="cls-1" d="M80.63,69.24,73.78,67a3.32,3.32,0,0,0-3.39.8l-3.57,3.57a3.32,3.32,0,0,1-4.69,0l-3.57-3.57a3.32,3.32,0,0,0-3.39-.8l-6.84,2.28a3.32,3.32,0,0,0-2.27,3.15v30.77l7.37,7.37v26.16A3.32,3.32,0,0,0,56.74,140H72.21a3.32,3.32,0,0,0,3.32-3.32V110.53l7.37-7.37V72.39A3.32,3.32,0,0,0,80.63,69.24Z"/><path class="cls-1" d="M138.16,110.53,120.34,35.71a3.32,3.32,0,0,0-3.23-2.55H112l-6.66,8a3.32,3.32,0,0,1-5.1,0l-6.66-8H89.2A3.32,3.32,0,0,0,86,35.71L80,60.62l3,.94a10.42,10.42,0,0,1,7.27,9.93v39h4.42L97.33,137a3.32,3.32,0,0,0,3.3,3h5.05a3.32,3.32,0,0,0,3.3-3l2.65-26.49Z"/><path class="cls-1" d="M47.93,36.24,35,33.16,25.79,44.21,16.58,33.16,4.35,36.21a3.32,3.32,0,0,0-2.51,3.22V81.05L12.89,92v44.67A3.32,3.32,0,0,0,16.21,140H35.37a3.32,3.32,0,0,0,3.32-3.32V81.05h0V71.49A10.42,10.42,0,0,1,46,61.55l4.52-1.44V39.46A3.32,3.32,0,0,0,47.93,36.24Z"/><rect class="cls-2" width="140" height="140"/></g></g></svg>