<svg xmlns="http://www.w3.org/2000/svg" viewBox="0 0 140 140"><defs><style>.cls-1{fill:#007aff;}.cls-2{fill:none;}</style></defs><title>Огнетушители</title><g id="Слой_2" data-name="Слой 2"><g id="Слой_1-2" data-name="Слой 1"><path class="cls-1" d="M51.68,126.67v6.84A6.49,6.49,0,0,0,58.17,140H98.49a6.5,6.5,0,0,0,6.49-6.49v-6.84Z"/><rect class="cls-1" x="51.68" y="50" width="53.3" height="70"/><path class="cls-1" d="M127.91.47,78.54,6.67H71.67v6.66h-10V10L8.37,0V33.33l53.3-10V20.05h10v6.62H66.18A14.36,14.36,0,0,0,58.39,29l-.2.13a14.32,14.32,0,0,0-6.51,12v2.23H105V41a14.29,14.29,0,0,0-14.31-14.3H85V20.05h6.67V16.69l26.67,16.64H125l-23.32-20H85v-.82L128.73,7a3.31,3.31,0,1,0-.82-6.56Z"/><rect class="cls-2" width="140" height="140"/></g></g></svg>