<svg xmlns="http://www.w3.org/2000/svg" viewBox="0 0 140 140"><defs><style>.cls-1{fill:#007aff;}.cls-2{fill:none;}</style></defs><title>Фитнес-центр</title><g id="Слой_2" data-name="Слой 2"><g id="Слой_1-2" data-name="Слой 1"><rect class="cls-1" x="40.45" y="61.6" width="59.11" height="16.88" transform="translate(-29.03 70.01) rotate(-45)"/><polygon class="cls-1" points="138.66 43.18 123.73 58.11 111.75 58.07 81.94 28.25 81.94 16.31 96.86 1.39 108.84 1.43 138.65 31.24 138.66 43.18"/><polygon class="cls-1" points="58.06 123.77 43.14 138.7 31.16 138.66 1.35 108.84 1.34 96.9 16.27 81.98 28.25 82.02 58.06 111.83 58.06 123.77"/><path class="cls-1" d="M125.48,1.9h0a8.44,8.44,0,0,1,8.44,8.44v0a8.44,8.44,0,0,1-8.44,8.44h0a0,0,0,0,1,0,0V1.9A0,0,0,0,1,125.48,1.9Z" transform="translate(30.67 94.74) rotate(-45)"/><path class="cls-1" d="M6.08,121.3h0a8.44,8.44,0,0,1,8.44,8.44v0a8.44,8.44,0,0,1-8.44,8.44h0a0,0,0,0,1,0,0V121.3A0,0,0,0,1,6.08,121.3Z" transform="translate(109.33 214.19) rotate(135)"/><rect class="cls-2" width="140" height="140"/></g></g></svg>