<svg xmlns="http://www.w3.org/2000/svg" viewBox="0 0 140 140"><defs><style>.cls-1{fill:#007aff;}.cls-2{fill:none;}</style></defs><title>Банкомат на территории отеля</title><g id="Слой_2" data-name="Слой 2"><g id="Слой_1-2" data-name="Слой 1"><path class="cls-1" d="M20,6V134a6,6,0,0,0,6,6h88a6,6,0,0,0,6-6V6a6,6,0,0,0-6-6H26A6,6,0,0,0,20,6ZM80,16.66h6.67v6.67H80ZM80,30h6.67v6.67H80Zm0,13.33h6.67V50H80ZM32.67,10H67.33a6,6,0,0,1,6,6V50.66a6,6,0,0,1-6,6H32.67a6,6,0,0,1-6-6V16A6,6,0,0,1,32.67,10ZM90,76.65H50a3.33,3.33,0,0,1-3.33-3.33h0A3.33,3.33,0,0,1,50,70H90a3.33,3.33,0,0,1,3.33,3.33h0A3.33,3.33,0,0,1,90,76.65ZM100,50H93.33V43.33H100Zm0-13.33H93.33V30H100Zm0-13.33H93.33V16.66H100ZM113.33,50h-6.67V43.33h6.67Zm0-13.33h-6.67V30h6.67Zm0-13.33h-6.67V16.66h6.67Z"/><rect class="cls-1" x="33.34" y="16.66" width="33.33" height="33.33" rx="3" ry="3"/><rect class="cls-2" width="140" height="140"/></g></g></svg>