<svg xmlns="http://www.w3.org/2000/svg" viewBox="0 0 140 140"><defs><style>.cls-1{fill:#007aff;}.cls-2{fill:none;}</style></defs><title>Услуги по глаженью одежды (за дополнительную плату)</title><g id="Слой_2" data-name="Слой 2"><g id="Слой_1-2" data-name="Слой 1"><path class="cls-1" d="M92.88,33V59.67h46.66V33Zm10,10H96.21V36.34h6.67Zm13.33,10a6.67,6.67,0,1,1,6.67-6.67A6.67,6.67,0,0,1,116.21,53Zm20,3.33h-6.67V49.68h6.67Z"/><polygon class="cls-1" points="89.55 29.68 129.54 29.68 129.54 22.52 82.88 22.52 82.88 49.18 89.55 49.18 89.55 29.68"/><path class="cls-1" d="M47.87,14.07q-2.44-2.48-5-4.88h0L9.56,105.84l6,1.81Z"/><path class="cls-1" d="M52.74,19.27l-31.1,90.2,5.29,1.59a22.4,22.4,0,0,1,16,21.45h44a6,6,0,0,0,6-6v-2.27A157.36,157.36,0,0,0,52.74,19.27ZM42.89,99.18a3.33,3.33,0,1,1,3.33-3.33A3.33,3.33,0,0,1,42.89,99.18Zm5.68-13.33a3.33,3.33,0,1,1,3.33-3.33A3.33,3.33,0,0,1,48.57,85.85Zm34.31,33.66a3,3,0,0,1-3,3H57.14a3,3,0,0,1-2.83-4L67.85,80.61A3,3,0,0,1,73,79.71,45.52,45.52,0,0,1,82.88,108Z"/><rect class="cls-1" x="17.8" y="35.29" width="5.45" height="11.98" rx="2.73" ry="2.73" transform="translate(-25.58 40.73) rotate(-62.88)"/><rect class="cls-1" x="5.49" y="68.98" width="5.45" height="11.98" rx="2.73" ry="2.73" transform="translate(-62.25 48.11) rotate(-62.88)"/><rect class="cls-1" x="6.83" y="32.94" width="5.45" height="5.45" rx="2.73" ry="2.73" transform="translate(-26.54 27.91) rotate(-62.88)"/><rect class="cls-1" x="7.28" y="45.9" width="5.45" height="20.78" rx="2.73" ry="2.73" transform="translate(-44.66 39.54) rotate(-62.88)"/><rect class="cls-2" width="140" height="140"/></g></g></svg>