<svg xmlns="http://www.w3.org/2000/svg" viewBox="0 0 140 140"><defs><style>.cls-1{fill:#007aff;}.cls-2{fill:none;}</style></defs><title>Хранение багажа</title><g id="Слой_2" data-name="Слой 2"><g id="Слой_1-2" data-name="Слой 1"><rect class="cls-1" x="43.36" y="133.33" width="6.66" height="6.67"/><rect class="cls-1" x="89.99" y="133.33" width="6.66" height="6.67"/><path class="cls-1" d="M83.19,0H56.81a3.47,3.47,0,0,0-3.47,3.47V40H60V6.67H80V40h6.67V3.47A3.47,3.47,0,0,0,83.19,0Z"/><path class="cls-1" d="M93.28,46.63H46.72a10,10,0,0,0-10,10v60a10,10,0,0,0,10,10H93.28a10,10,0,0,0,10-10v-60A10,10,0,0,0,93.28,46.63ZM59.89,113.45a3.22,3.22,0,1,1-6.43,0V56.6a3.22,3.22,0,0,1,6.43,0Zm13.42,0a3.22,3.22,0,1,1-6.44,0V56.6a3.22,3.22,0,0,1,6.44,0Zm13.23,0a3.22,3.22,0,1,1-6.43,0V56.6a3.22,3.22,0,0,1,6.43,0Z"/><rect class="cls-2" width="140" height="140"/></g></g></svg>