<svg xmlns="http://www.w3.org/2000/svg" viewBox="0 0 140 140"><defs><style>.cls-1{fill:#007aff;}.cls-2{fill:none;}</style></defs><title>Массаж</title><g id="Слой_2" data-name="Слой 2"><g id="Слой_1-2" data-name="Слой 1"><circle class="cls-1" cx="118.33" cy="93.29" r="11.66"/><circle class="cls-1" cx="60" cy="23.3" r="11.66"/><path class="cls-1" d="M70,111.62h64a6,6,0,0,1,6,6v7.33a0,0,0,0,1,0,0H70a0,0,0,0,1,0,0V111.62A0,0,0,0,1,70,111.62Z"/><path class="cls-1" d="M70,105H99.69a3,3,0,0,0,2.95-3.57l-2.06-10.66a3,3,0,0,0-2.95-2.43H70Z"/><path class="cls-1" d="M0,88.29H63.33a0,0,0,0,1,0,0v30.66a6,6,0,0,1-6,6H0a0,0,0,0,1,0,0V88.29A0,0,0,0,1,0,88.29Z" transform="translate(63.35 213.23) rotate(180)"/><path class="cls-1" d="M82.78,49.19l-6.7-5.36a10,10,0,0,0-6.28-2.2H53.39a10,10,0,0,0-10,10h0A16,16,0,0,0,48,63l7.68,7.68A5.85,5.85,0,0,0,58,72.06l14.3,4.77a3.29,3.29,0,0,0,4.31-2.3,3.23,3.23,0,0,0-2-3.71L61.45,65.53A5.85,5.85,0,0,1,59,63.74l-5-6.33a3,3,0,0,1,.59-4.28h0a3,3,0,0,1,3.88.31l3.76,3.76A9.89,9.89,0,0,0,64.72,59l8.61,4.41V51.6l8.25,8.27a6,6,0,0,1,1.75,4.24V74.87A3.39,3.39,0,0,0,86,78.22,3.34,3.34,0,0,0,90,75V64.2A19.22,19.22,0,0,0,82.78,49.19Z"/><path class="cls-1" d="M43.34,68.29V81.62H66.67L56.46,79.07A11.63,11.63,0,0,1,51.05,76Z"/><rect class="cls-2" width="140" height="140"/></g></g></svg>