<svg xmlns="http://www.w3.org/2000/svg" viewBox="0 0 140 140"><defs><style>.cls-1{fill:#007aff;}.cls-2{fill:none;}</style></defs><title>Массажное кресло</title><g id="Слой_2" data-name="Слой 2"><g id="Слой_1-2" data-name="Слой 1"><path class="cls-1" d="M135.93,114.42H124.66l.16-.11L94.95,77.86l6.53-9.81a7.69,7.69,0,0,0-6.86-11.94l-40.88,2.4a11.4,11.4,0,0,0-9.54,6.3L32.43,88.47l4.39-22.38A18.06,18.06,0,0,1,54.55,51.51L18.94,15.84a4.72,4.72,0,0,0-6.68,0l-9,9a4.72,4.72,0,0,0,0,6.68l3.13,3.13L1.77,39.29a4.72,4.72,0,0,0,0,6.68L28.66,72.86V93.18a10,10,0,0,0,10,10H54.55v11.17H46.78a3.33,3.33,0,0,0-3.33,3.33v4.07h-9a5.77,5.77,0,0,0-5.77,5.77v5.33H87.83v-5.33a5.77,5.77,0,0,0-5.77-5.77H73v-4.07a3.33,3.33,0,0,0-3.33-3.33H61.94V103.21H77.8a10,10,0,0,0,9-5.54l27,24.11h22.21a3.68,3.68,0,0,0,0-7.37Z"/><circle class="cls-1" cx="47.15" cy="18.22" r="11.1"/><path class="cls-1" d="M51.86,40,65.64,51.51H91.53a3.7,3.7,0,0,0,0-7.4H69.34l-7.4-7.4-7.76-1.55A2.78,2.78,0,0,0,51.86,40Z"/><path class="cls-1" d="M123.9,105.76a3.07,3.07,0,0,0,5-3.49L108.39,70l-5.76,7.4Z"/><rect class="cls-2" width="140" height="140"/></g></g></svg>