<svg xmlns="http://www.w3.org/2000/svg" viewBox="0 0 140 140"><defs><style>.cls-1{fill:#007aff;}.cls-2{fill:none;}</style></defs><title>Ресторан (шведский стол)</title><g id="Слой_2" data-name="Слой 2"><g id="Слой_1-2" data-name="Слой 1"><path class="cls-1" d="M129.83,89.73a56.5,56.5,0,0,0-56.5-56.5h0v-10H77a3,3,0,0,0,3-3v-4a3,3,0,0,0-3-3H62.92a3,3,0,0,0-3,3v4a3,3,0,0,0,3,3h3.67v10h-.07A56.5,56.5,0,0,0,10,89.73V99.89H129.83Z"/><path class="cls-1" d="M0,106.56l9.1,12.13a3,3,0,0,0,2.4,1.2h117a3,3,0,0,0,2.4-1.2l9.1-12.13Z"/><rect class="cls-2" width="140" height="140"/></g></g></svg>