<svg xmlns="http://www.w3.org/2000/svg" width="32" height="32" viewBox="0 0 32 32">
    <g fill="none" fill-rule="nonzero" opacity=".8">
        <path fill="#000" d="M15.65.653a.653.653 0 0 0-.38.14L.25 12.546a.653.653 0 1 0 .806 1.028l.903-.706V30.04c0 .36.293.653.653.653h5.225v-1.306H3.265V11.846l12.408-9.71 12.409 9.71v17.542H23.51v1.306h5.225c.36 0 .653-.293.653-.653V12.869l.903.706a.653.653 0 1 0 .806-1.028L16.077.792a.653.653 0 0 0-.426-.139z"/>
        <path fill="#000" d="M10.449 14.367h10.449v14.284l-5.225-4.004-5.224 4.004z"/>
        <path fill="#007AFF" d="M9.143 13.061v18.237l6.53-5.006 6.531 5.006V13.061z"/>
    </g>
</svg>
