<svg xmlns="http://www.w3.org/2000/svg" viewBox="0 0 140 140"><defs><style>.cls-1{fill:#007aff;}.cls-2{fill:none;}</style></defs><title>Уличная парковка</title><g id="Слой_2" data-name="Слой 2"><g id="Слой_1-2" data-name="Слой 1"><path class="cls-1" d="M139.24,79.85l-2.77-8.31a14.51,14.51,0,0,0-9.18-9.18l-11.39-3.8a14.51,14.51,0,0,0-9.18,0l-11.39,3.8a14.51,14.51,0,0,0-9.18,9.18l-2.77,8.31A14.51,14.51,0,0,0,86,93.72h0a14.51,14.51,0,0,0,11.14,5.22h12.06l-1.82,25.5h7.84l-1.82-25.5h12.06a14.51,14.51,0,0,0,11.14-5.22h0A14.51,14.51,0,0,0,139.24,79.85Z"/><path class="cls-1" d="M56.55,51.12h-15V67.78h15a8.33,8.33,0,1,0,0-16.66Z"/><path class="cls-1" d="M78.51,97.69h0a18.81,18.81,0,0,1-3.4-18l3.59-10.77A18.81,18.81,0,0,1,90.61,57l9-3a51.55,51.55,0,1,0-7.5,50.41A18.81,18.81,0,0,1,78.51,97.69ZM56.1,77.78H41.55v27a3,3,0,0,1-3,3h-4a3,3,0,0,1-3-3V44.12a3,3,0,0,1,3-3h22a18.33,18.33,0,0,1,18.32,19C74.51,70.05,66,77.78,56.1,77.78Z"/><rect class="cls-2" width="140" height="140"/></g></g></svg>