<svg xmlns="http://www.w3.org/2000/svg" viewBox="0 0 140 140"><defs><style>.cls-1{fill:#007aff;}.cls-2{fill:none;}</style></defs><title>Охраняемая парковка</title><g id="Слой_2" data-name="Слой 2"><g id="Слой_1-2" data-name="Слой 1"><path class="cls-1" d="M76.67,46.89h-15V63.56h15a8.33,8.33,0,0,0,0-16.66Z"/><path class="cls-1" d="M127.94,19.55l-57-19a3,3,0,0,0-1.9,0l-57,19A3,3,0,0,0,10,22.39V45.13a102.93,102.93,0,0,0,45.84,85.64l12.49,8.33a3,3,0,0,0,3.33,0l12.49-8.33A102.93,102.93,0,0,0,130,45.13V22.39A3,3,0,0,0,127.94,19.55Zm-51.71,54H61.67v27a3,3,0,0,1-3,3h-4a3,3,0,0,1-3-3V39.89a3,3,0,0,1,3-3h22A18.33,18.33,0,0,1,95,55.89C94.63,65.83,86.16,73.55,76.23,73.55Z"/><rect class="cls-2" width="140" height="140"/></g></g></svg>