<svg xmlns="http://www.w3.org/2000/svg" viewBox="0 0 140 140"><defs><style>.cls-1{fill:#007aff;}.cls-2{fill:none;}</style></defs><title>Оплата Master Card</title><g id="Слой_2" data-name="Слой 2"><g id="Слой_1-2" data-name="Слой 1"><path class="cls-1" d="M86.66,46.67a23.22,23.22,0,0,0-11.34,2.94,30,30,0,0,1,0,40.78A23.33,23.33,0,1,0,86.66,46.67Z"/><path class="cls-1" d="M129.83,20H10.17A10.16,10.16,0,0,0,0,30.17v79.66A10.16,10.16,0,0,0,10.17,120H129.83A10.16,10.16,0,0,0,140,109.83V30.17A10.16,10.16,0,0,0,129.83,20ZM86.66,100A29.85,29.85,0,0,1,70,94.94a30,30,0,1,1,0-49.88A30,30,0,1,1,86.66,100Z"/><rect class="cls-2" width="140" height="140"/></g></g></svg>