<svg xmlns="http://www.w3.org/2000/svg" viewBox="0 0 140 140"><defs><style>.cls-1{fill:#007aff;}.cls-2{fill:none;}</style></defs><title>Оплата Visa Card</title><g id="Слой_2" data-name="Слой 2"><g id="Слой_1-2" data-name="Слой 1"><path class="cls-1" d="M107.71,65.81c-.42,1.12-1.13,2.93-1.08,2.85L103.39,77h6.75l-1.88-8.61Z"/><path class="cls-1" d="M129.83,22.62H10.17A10.16,10.16,0,0,0,0,32.78v79.66a10.16,10.16,0,0,0,10.16,10.16H129.83A10.16,10.16,0,0,0,140,112.45V32.78A10.16,10.16,0,0,0,129.83,22.62ZM32.71,57.48c1.7.06,3.07.61,3.54,2.42l1.26,6a35.56,35.56,0,0,0-17.4-8.47Zm2.65,30.06L29,65.95c5.23,3.35,11.15,12.16,11.15,12.16l8-20.34h8.61L44,87.53Zm19.6,0L60,57.74h8.13L63.09,87.56ZM77.23,88a25.74,25.74,0,0,1-9.05-1.59l1.14-6.67,1,.48A17.06,17.06,0,0,0,78,81.78c2.33,0,4.83-.92,4.86-2.91,0-1.31-1-2.24-4.21-3.7s-7.17-3.82-7.12-8.1c0-5.8,5.7-9.84,13.73-9.84a21,21,0,0,1,7.28,1.25l-1.1,6.46-.73-.34a15,15,0,0,0-6.08-1.14C81.46,63.45,80,64.78,80,66c0,1.4,1.72,2.32,4.57,3.7,4.7,2.12,6.86,4.71,6.83,8.1C91.32,84,85.77,88,77.23,88Zm35.22-.43s-.75-3.43-1-4.47H101.05c-.32.8-1.71,4.48-1.71,4.48H90.81l12.07-27.33c.86-1.94,2.31-2.47,4.26-2.47h6.28L120,87.57Z"/><rect class="cls-2" width="140" height="140"/></g></g></svg>