<svg xmlns="http://www.w3.org/2000/svg" viewBox="0 0 140 140"><defs><style>.cls-1{fill:#007aff;}.cls-2{fill:none;}</style></defs><title>Факс_ксерокопирование</title><g id="Слой_2" data-name="Слой 2"><g id="Слой_1-2" data-name="Слой 1"><polygon class="cls-1" points="96.66 80 96.66 133.32 43.34 133.32 43.34 80 36.67 80 36.67 139.99 103.33 139.99 103.33 80 96.66 80"/><polygon class="cls-1" points="96.66 26.67 96.66 6.68 43.34 6.68 43.34 26.67 36.67 26.67 36.67 0.01 103.33 0.01 103.33 26.67 96.66 26.67"/><path class="cls-1" d="M128,33.34H12a12,12,0,0,0-12,12v62a6,6,0,0,0,6,6H26.67V76a6,6,0,0,1,6-6h74.65a6,6,0,0,1,6,6v37.33H134a6,6,0,0,0,6-6v-62A12,12,0,0,0,128,33.34ZM25,60a8.33,8.33,0,1,1,8.33-8.33A8.33,8.33,0,0,1,25,60Zm101.65-3.33H93.22v-10h33.44Z"/><rect class="cls-1" x="50" y="113.33" width="39.99" height="6.67" rx="3.33" ry="3.33"/><rect class="cls-1" x="50" y="96.66" width="39.99" height="6.67" rx="3.33" ry="3.33"/><rect class="cls-2" width="140" height="140"/></g></g></svg>