<svg xmlns="http://www.w3.org/2000/svg" viewBox="0 0 140 140"><defs><style>.cls-1{fill:#007aff;}.cls-2{fill:none;}</style></defs><title>Номера для некурящих</title><g id="Слой_2" data-name="Слой 2"><g id="Слой_1-2" data-name="Слой 1"><path class="cls-1" d="M115,78.33a9,9,0,0,0,0,10l2.51,3.76a2.77,2.77,0,0,0,2.31,1.23h0A2.77,2.77,0,0,0,122.14,89l-1.74-2.61a5.54,5.54,0,0,1,0-6.15l1.28-1.92a9,9,0,0,0,0-10l-2.51-3.76a2.77,2.77,0,0,0-4.61,3.08l1.74,2.61a5.54,5.54,0,0,1,0,6.15Z"/><rect class="cls-1" x="16.7" y="100" width="26.64" height="10.18"/><rect class="cls-1" x="113.35" y="100" width="10" height="10.17"/><polygon class="cls-1" points="86.61 110.17 106.69 110.17 106.69 100 76.44 100 86.61 110.17"/><polygon class="cls-1" points="67.01 100 50.05 100 50.05 110.17 77.18 110.17 67.01 100"/><path class="cls-1" d="M138.65,45.78,70,0,1.35,45.78A3,3,0,0,0,0,48.28V137a3,3,0,0,0,3,3H137a3,3,0,0,0,3-3V48.28A3,3,0,0,0,138.65,45.78ZM70,13.34,125,50H15ZM130,129a1,1,0,0,1-1,1H11a1,1,0,0,1-1-1V59a1,1,0,0,1,1-1H129a1,1,0,0,1,1,1Z"/><polygon class="cls-1" points="50.42 64.71 40.99 64.71 99.61 123.33 109.04 123.33 50.42 64.71"/><rect class="cls-2" width="140" height="140"/></g></g></svg>