<svg xmlns="http://www.w3.org/2000/svg" viewBox="0 0 140 140"><defs><style>.cls-1{fill:#007aff;}.cls-2{fill:none;}</style></defs><title>Круглосуточная стойка регистрации</title><g id="Слой_2" data-name="Слой 2"><g id="Слой_1-2" data-name="Слой 1"><circle class="cls-1" cx="69.99" cy="11.68" r="11.66"/><path class="cls-1" d="M89.8,26.67H80L70,39.91,60,26.67H50.19a6.86,6.86,0,0,0-6.86,6.86V53.34H96.66V33.53A6.86,6.86,0,0,0,89.8,26.67Z"/><path class="cls-1" d="M3,60H137a3,3,0,0,1,3,3v7a0,0,0,0,1,0,0H0a0,0,0,0,1,0,0V63A3,3,0,0,1,3,60Z"/><polygon class="cls-1" points="85.25 107.1 85.25 98.19 77.85 107.1 85.25 107.1"/><path class="cls-1" d="M0,76.67V137a3,3,0,0,0,3,3H137a3,3,0,0,0,3-3V76.67ZM67.27,119.5H42.73V113l11.61-8.86c2.92-2.21,4-3.72,4-5.58s-1.37-3.15-3.46-3.15-3.72,1.2-6.16,4l-5.8-4.83C46.22,90.31,49.5,88,55.53,88,62.3,88,67,92,67,97.93c0,5-2.52,7.57-7.18,10.85l-5.32,3.72h12.8Zm30.25-6H93.57v6H85.25v-6h-15l-1.42-6.07L84.89,88.27h8.68v18.78h3.94Z"/><rect class="cls-2" width="140" height="140"/></g></g></svg>