<svg xmlns="http://www.w3.org/2000/svg" viewBox="0 0 140 140"><defs><style>.cls-1{fill:#007aff;}.cls-2{fill:none;}</style></defs><title>Ресторан</title><g id="Слой_2" data-name="Слой 2"><g id="Слой_1-2" data-name="Слой 1"><path class="cls-1" d="M108.83,129.3,102.91,79V.26A94.88,94.88,0,0,0,85,55.79V79H95.73L89.8,129.3a9.58,9.58,0,1,0,19,0Z"/><path class="cls-1" d="M63.42,10.76h0a3.59,3.59,0,0,0-3.59,3.59V32.17a3.59,3.59,0,0,1-3.59,3.59h0a3.59,3.59,0,0,1-3.59-3.59V14.35a3.59,3.59,0,1,0-7.18,0V32.17a3.59,3.59,0,0,1-3.59,3.59h0a3.59,3.59,0,0,1-3.59-3.59V14.35a3.59,3.59,0,1,0-7.18,0V38.61a13.09,13.09,0,0,0,7.18,11.68A13.09,13.09,0,0,1,45.47,62V79h0L39.54,129.3A9.58,9.58,0,0,0,49.06,140h0a9.58,9.58,0,0,0,9.51-10.7L52.65,79V62a13.09,13.09,0,0,1,7.12-11.65l.12-.06A13.09,13.09,0,0,0,67,38.67V14.35A3.59,3.59,0,0,0,63.42,10.76Z"/><rect class="cls-2" width="140" height="140"/></g></g></svg>