<svg xmlns="http://www.w3.org/2000/svg" viewBox="0 0 140 140"><defs><style>.cls-1{fill:#007aff;}.cls-2{fill:none;}</style></defs><title>Датчики дыма</title><g id="Слой_2" data-name="Слой 2"><g id="Слой_1-2" data-name="Слой 1"><path class="cls-1" d="M85.13,118.32a9,9,0,0,0,0,10l2.51,3.76A2.77,2.77,0,0,0,90,133.32h0A2.77,2.77,0,0,0,92.26,129l-1.74-2.61a5.51,5.51,0,0,1,0-6.15l1.28-1.93a9,9,0,0,0,0-10l-2.51-3.76a2.78,2.78,0,1,0-4.62,3.08l1.75,2.61a5.55,5.55,0,0,1,0,6.15Z"/><path class="cls-1" d="M48.16,118.32a9,9,0,0,0,0,10l2.51,3.76A2.77,2.77,0,1,0,55.28,129l-1.74-2.61a5.55,5.55,0,0,1,0-6.15l1.29-1.93a9,9,0,0,0,0-10l-2.51-3.76a2.78,2.78,0,1,0-4.62,3.08l1.74,2.61a5.55,5.55,0,0,1,0,6.15Z"/><path class="cls-1" d="M66.65,118.32a9,9,0,0,0,0,10l2.51,3.76A2.77,2.77,0,1,0,73.77,129L72,126.4a5.55,5.55,0,0,1,0-6.15l1.28-1.93a9,9,0,0,0,0-10l-2.51-3.76a2.77,2.77,0,0,0-2.3-1.24h0a2.78,2.78,0,0,0-2.31,4.32l1.74,2.61a5.55,5.55,0,0,1,0,6.15Z"/><path class="cls-1" d="M114.78,33.33H25.22a6.65,6.65,0,0,1-6.45-5L13.37,6.68H126.63l-5.4,21.61A6.65,6.65,0,0,1,114.78,33.33Z"/><path class="cls-1" d="M30,40,42.38,80.23a4.36,4.36,0,0,0,4.17,3.08H93.41a4.37,4.37,0,0,0,4.17-3.08L110,40ZM49.9,76.74l-9.9-30H53.29l3.28,30Zm26.74,0H63.37l-3.29-30H80Zm13.33,0H83.3l3.33-30h13.3Z"/><rect class="cls-2" width="140" height="140"/></g></g></svg>