<svg xmlns="http://www.w3.org/2000/svg" viewBox="0 0 140 140"><defs><style>.cls-1{fill:#007aff;}.cls-2{fill:none;}</style></defs><title>Трансфер</title><g id="Слой_2" data-name="Слой 2"><g id="Слой_1-2" data-name="Слой 1"><path class="cls-1" d="M115,92.09a11.67,11.67,0,1,0,11.67,11.67A11.67,11.67,0,0,0,115,92.09Zm0,16.66a5,5,0,1,1,5-5A5,5,0,0,1,115,108.76Z"/><path class="cls-1" d="M25,92.09a11.67,11.67,0,1,0,11.67,11.67A11.67,11.67,0,0,0,25,92.09Zm0,16.66a5,5,0,1,1,5-5A5,5,0,0,1,25,108.76Z"/><path class="cls-1" d="M129.66,48.76H140V42.19a6.75,6.75,0,0,0-6.75-6.75H6.76A6.75,6.75,0,0,0,0,42.19v6.58H3.68a3,3,0,0,1,3,3V72.43a3,3,0,0,1-3,3H0V95.34a6.75,6.75,0,0,0,6.75,6.75h0a18.32,18.32,0,0,1,36.49,0h53.5a18.32,18.32,0,0,1,36.49,0A6.75,6.75,0,0,0,140,95.34V88.76h-6.67V82.1H140V75.43H129.66a3,3,0,0,1-3-3V51.76A3,3,0,0,1,129.66,48.76ZM43.34,72.43a3,3,0,0,1-3,3H29.68a3,3,0,0,1-3-3V51.77a3,3,0,0,1,3-3H40.34a3,3,0,0,1,3,3Zm23.33,0a3,3,0,0,1-3,3H53a3,3,0,0,1-3-3V51.77a3,3,0,0,1,3-3H63.67a3,3,0,0,1,3,3Zm23.33,0a3,3,0,0,1-3,3H76.34a3,3,0,0,1-3-3V51.77a3,3,0,0,1,3-3H87a3,3,0,0,1,3,3Zm23.33,0a3,3,0,0,1-3,3H99.67a3,3,0,0,1-3-3V51.77a3,3,0,0,1,3-3h10.66a3,3,0,0,1,3,3Z"/><rect class="cls-2" width="140" height="140"/></g></g></svg>