<svg xmlns="http://www.w3.org/2000/svg" viewBox="0 0 140 140"><defs><style>.cls-1{fill:#007aff;}.cls-2{fill:none;}</style></defs><title>Телевизор с плоским экраном</title><g id="Слой_2" data-name="Слой 2"><g id="Слой_1-2" data-name="Слой 1"><path class="cls-1" d="M139.89,91.39V27a6,6,0,0,0-6-6H6.11a6,6,0,0,0-6,6V91.39a6,6,0,0,0,6,6H63.42v20.33a3,3,0,0,1-3,3H42.92a3,3,0,0,0-3,3V128a3,3,0,0,0,3,3h54a3,3,0,0,0,3-3v-4.24a3,3,0,0,0-3-3H79.58a3,3,0,0,1-3-3V97.39h57.31A6,6,0,0,0,139.89,91.39ZM6.76,88V30.65a3,3,0,0,1,3-3H130.24a3,3,0,0,1,3,3V88a3,3,0,0,1-3,3H9.76A3,3,0,0,1,6.76,88Z"/><path class="cls-1" d="M36.25,51H46.59V71.3a3,3,0,0,0,3,3h.67a3,3,0,0,0,3-3V51H63.58a3,3,0,0,0,3-3v-.67a3,3,0,0,0-3-3H36.25a3,3,0,0,0-3,3V48A3,3,0,0,0,36.25,51Z"/><path class="cls-1" d="M89.91,66,80.72,46.05A3,3,0,0,0,78,44.31h-.13a3,3,0,0,0-2.74,4.22l10.66,24a3,3,0,0,0,2.74,1.78H91.3A3,3,0,0,0,94,72.52l10.66-24A3,3,0,0,0,102,44.31h-.13a3,3,0,0,0-2.72,1.74Z"/><rect class="cls-2" width="140" height="140"/></g></g></svg>