<?xml version="1.0" encoding="UTF-8"?>
<svg width="14px" height="14px" viewBox="0 0 14 14" version="1.1" xmlns="http://www.w3.org/2000/svg" xmlns:xlink="http://www.w3.org/1999/xlink">
    <!-- Generator: Sketch 52.3 (67297) - http://www.bohemiancoding.com/sketch -->
    <title>Shape</title>
    <desc>Created with Sketch.</desc>
    <g id="Page-1" stroke="none" stroke-width="1" fill="none" fill-rule="evenodd">
        <g id="3121313-copy" transform="translate(-202.000000, -2104.000000)" fill="#282828" fill-rule="nonzero">
            <g id="Group-50" transform="translate(164.000000, 2034.000000)">
                <g id="Group-16">
                    <g id="Group-23">
                        <g id="Group-22">
                            <g id="Group-53" transform="translate(22.000000, 66.000000)">
                                <g id="Group-52" transform="translate(0.000000, 4.000000)">
                                    <g id="icons8-account-(1)" transform="translate(16.000000, 0.000000)">
                                        <path d="M7,0.00113930833 C4.5255,0.00113930833 3.5,1.58838931 3.5,3.50113931 C3.5,4.14513925 3.80761716,4.79199233 3.80761722,4.79199233 C3.68395055,4.86257567 3.48056771,5.08848025 3.53190104,5.49039692 C3.62756771,6.23881358 3.95202862,6.42939967 4.1585285,6.44514967 C4.2372785,7.14339967 4.9875,8.03658333 5.25,8.16666667 L5.25,9.33333333 C5.20158333,9.47975 5.11563267,9.59905975 5.01529933,9.70930975 C5.50413267,10.1310597 6.16816667,10.5 7,10.5 C7.83183333,10.5 8.49586733,10.1310597 8.98470067,9.70930975 C8.88436733,9.59905975 8.79841667,9.47975 8.75,9.33333333 L8.75,8.16666667 C9.0125,8.03658333 9.7627215,7.14339967 9.8414715,6.44514967 C10.0479715,6.42939967 10.372432,6.23881358 10.4680987,5.49039692 C10.5194326,5.08848025 10.3160493,4.863159 10.1923827,4.79199233 C10.1923827,4.79199233 10.5,4.20755592 10.5,3.50113931 C10.5,2.08480597 9.94408333,0.876139308 8.75,0.876139308 C8.75,0.876139308 8.33525,0.00113930833 7,0.00113930833 Z M3.94433597,10.309733 C2.37108597,10.8440663 0,11.0868333 0,14 L14,14 C14,11.0868333 11.6289139,10.8440663 10.0556639,10.309733 C9.39066392,10.983483 8.379,11.6666667 7,11.6666667 C5.621,11.6666667 4.60933608,10.983483 3.94433597,10.309733 Z" id="Shape"></path>
                                    </g>
                                </g>
                            </g>
                        </g>
                    </g>
                </g>
            </g>
        </g>
    </g>
</svg>