<svg xmlns="http://www.w3.org/2000/svg" viewBox="0 0 140 140"><defs><style>.cls-1{fill:#007aff;}.cls-2{fill:none;}</style></defs><title>Прачечная</title><g id="Слой_2" data-name="Слой 2"><g id="Слой_1-2" data-name="Слой 1"><path class="cls-1" d="M20,30.66V131.31a6,6,0,0,0,6,6h88a6,6,0,0,0,6-6V30.66Zm50,76.24A32.92,32.92,0,1,1,102.9,74,32.92,32.92,0,0,1,70,106.91Z"/><path class="cls-1" d="M114,4H26a6,6,0,0,0-6,6V24H120V10A6,6,0,0,0,114,4ZM53.34,17.33H30V10.67H53.34Zm53.33,0A3.33,3.33,0,1,1,110,14,3.33,3.33,0,0,1,106.66,17.33Z"/><path class="cls-1" d="M70,47.33A26.66,26.66,0,1,0,96.66,74,26.66,26.66,0,0,0,70,47.33ZM70,94A20,20,0,1,1,90,74,20,20,0,0,1,70,94Z"/><rect class="cls-2" width="140" height="140"/></g></g></svg>