<svg xmlns="http://www.w3.org/2000/svg" viewBox="0 0 140 140"><defs><style>.cls-1{fill:#007aff;}.cls-2{fill:none;}</style></defs><title>Прачечная (за дополнительную плату)</title><g id="Слой_2" data-name="Слой 2"><g id="Слой_1-2" data-name="Слой 1"><path class="cls-1" d="M93.33,97.19v26.66H140V97.19Zm10,10H96.66v-6.67h6.67Zm13.33,10a6.67,6.67,0,1,1,6.67-6.67A6.67,6.67,0,0,1,116.66,117.19Zm20,3.33H130v-6.67h6.67Z"/><polygon class="cls-1" points="90 93.86 129.99 93.86 129.99 86.7 83.33 86.7 83.33 113.36 90 113.36 90 93.86"/><path class="cls-1" d="M94,3.87H6a6,6,0,0,0-6,6v14H100v-14A6,6,0,0,0,94,3.87ZM33.34,17.2H10V10.54H33.34Zm53.33,0A3.33,3.33,0,1,1,90,13.87,3.33,3.33,0,0,1,86.66,17.2Z"/><path class="cls-1" d="M50,47.2A26.66,26.66,0,1,0,76.67,73.86,26.66,26.66,0,0,0,50,47.2Zm0,46.66a20,20,0,1,1,20-20A20,20,0,0,1,50,93.86Z"/><path class="cls-1" d="M100,80.53v-50H0V131.19a6,6,0,0,0,6,6H94a6,6,0,0,0,6-6v-.67H86.64v-10h-10V93.13a32.74,32.74,0,1,1,5.56-12.6Z"/><rect class="cls-2" width="140" height="140"/></g></g></svg>