<svg xmlns="http://www.w3.org/2000/svg" viewBox="0 0 140 140"><defs><style>.cls-1{fill:#007aff;}.cls-2{fill:none;}</style></defs><title>WiFi</title><g id="Слой_2" data-name="Слой 2"><g id="Слой_1-2" data-name="Слой 1"><path class="cls-1" d="M70,37.73a76.73,76.73,0,0,1,54.43,22.55l12.38-12.37a94.49,94.49,0,0,0-133.62,0L15.57,60.28A76.73,76.73,0,0,1,70,37.73Z"/><path class="cls-1" d="M70,72.72A41.84,41.84,0,0,1,99.69,85l12.37-12.37a59.49,59.49,0,0,0-84.12,0L40.31,85A41.84,41.84,0,0,1,70,72.72Z"/><path class="cls-1" d="M87.32,97.39a24.5,24.5,0,0,0-34.64,0L70,114.71Z"/><rect class="cls-2" width="140" height="140"/></g></g></svg>